<svg xmlns="http://www.w3.org/2000/svg" xmlns:xlink="http://www.w3.org/1999/xlink" width="1080" zoomAndPan="magnify" viewBox="0 0 810 809.999993" height="1080" preserveAspectRatio="xMidYMid meet" version="1.0"><defs><clipPath id="6d3a2133c2"><path d="M 0 0.808594 L 810 0.808594 L 810 810 L 0 810 Z M 0 0.808594 " clip-rule="nonzero"/></clipPath><clipPath id="c45f879a6f"><path d="M 0 0.808594 L 810 0.808594 L 810 810 L 0 810 Z M 0 0.808594 " clip-rule="nonzero"/></clipPath><clipPath id="589c15b21b"><rect x="0" width="810" y="0" height="810"/></clipPath><clipPath id="215f5aba6a"><path d="M 22.914062 23.703125 L 788 23.703125 L 788 787.105469 L 22.914062 787.105469 Z M 22.914062 23.703125 " clip-rule="nonzero"/></clipPath><clipPath id="ac0e064758"><path d="M 89.664062 23.703125 L 720.335938 23.703125 C 738.039062 23.703125 755.015625 30.734375 767.535156 43.253906 C 780.050781 55.769531 787.085938 72.75 787.085938 90.453125 L 787.085938 720.355469 C 787.085938 738.058594 780.050781 755.039062 767.535156 767.554688 C 755.015625 780.074219 738.039062 787.105469 720.335938 787.105469 L 89.664062 787.105469 C 71.960938 787.105469 54.984375 780.074219 42.464844 767.554688 C 29.949219 755.039062 22.914062 738.058594 22.914062 720.355469 L 22.914062 90.453125 C 22.914062 72.75 29.949219 55.769531 42.464844 43.253906 C 54.984375 30.734375 71.960938 23.703125 89.664062 23.703125 Z M 89.664062 23.703125 " clip-rule="nonzero"/></clipPath><clipPath id="99a34b0f54"><path d="M 0.914062 0.703125 L 765 0.703125 L 765 764.105469 L 0.914062 764.105469 Z M 0.914062 0.703125 " clip-rule="nonzero"/></clipPath><clipPath id="e6afe8b19d"><path d="M 67.664062 0.703125 L 698.335938 0.703125 C 716.039062 0.703125 733.015625 7.734375 745.535156 20.253906 C 758.050781 32.769531 765.085938 49.75 765.085938 67.453125 L 765.085938 697.355469 C 765.085938 715.058594 758.050781 732.039062 745.535156 744.554688 C 733.015625 757.074219 716.039062 764.105469 698.335938 764.105469 L 67.664062 764.105469 C 49.960938 764.105469 32.984375 757.074219 20.464844 744.554688 C 7.949219 732.039062 0.914062 715.058594 0.914062 697.355469 L 0.914062 67.453125 C 0.914062 49.75 7.949219 32.769531 20.464844 20.253906 C 32.984375 7.734375 49.960938 0.703125 67.664062 0.703125 Z M 67.664062 0.703125 " clip-rule="nonzero"/></clipPath><clipPath id="a60b8295f6"><rect x="0" width="766" y="0" height="765"/></clipPath></defs><rect x="-81" width="972" fill="#ffffff" y="-80.999999" height="971.999992" fill-opacity="1"/><rect x="-81" width="972" fill="#ffffff" y="-80.999999" height="971.999992" fill-opacity="1"/><g clip-path="url(#6d3a2133c2)"><g transform="matrix(1, 0, 0, 1, 0, 0.000000000000039746)"><g clip-path="url(#589c15b21b)"><g clip-path="url(#c45f879a6f)"><path fill="#ffbd8d" d="M 0 0.808594 L 809.191406 0.808594 L 809.191406 810 L 0 810 Z M 0 0.808594 " fill-opacity="1" fill-rule="nonzero"/></g></g></g></g><g clip-path="url(#215f5aba6a)"><g clip-path="url(#ac0e064758)"><g transform="matrix(1, 0, 0, 1, 22, 23)"><g clip-path="url(#a60b8295f6)"><g clip-path="url(#99a34b0f54)"><g clip-path="url(#e6afe8b19d)"><path fill="#ffe8d8" d="M 0.914062 0.703125 L 764.320312 0.703125 L 764.320312 764.105469 L 0.914062 764.105469 Z M 0.914062 0.703125 " fill-opacity="1" fill-rule="nonzero"/></g></g></g></g></g></g></svg>